# xmcd
#
# Track frame offsets:
#	150
#	12636
#	26672
#	38525
#	53196
#	66098
#	77396
#	90785
#	104108
#	116971
#	131833
#	144702
#	159499
#	171409
#	183486
#	197366
#	207529
#	218860
#	231192
#	245444
#	258804
#	270005
#	282041
#	293880
#
# Disc length: 4061
#
# Revision: 2
# Processed by: cddbd v1.5.1PL0 Copyright (c) Steve Scherf et al.
# Submitted via: EasyCDDAExtractor 5.0.0.0
# Normalized: r0:DSETVAR1,TSWAP
#
DISCID=5a0fdb18
DTITLE=Various Artist - Country Pioneers
DYEAR=1900
DGENRE=Country
TTITLE0=Fiddlin' John Carson - The Old Hen Cackled
TTITLE1=Fiddlin' John Carson - Casey Jones
TTITLE2=Kelly Harrell - The Cuckoo She's A Fine Bird
TTITLE3=Kelly Harrell - My Name Is John Jo Hannah
TTITLE4=Uncle Dave Macon - The Gayest Old Dude That's Out
TTITLE5=Uncle Dave Macon - Keep My Skillet Good And Greasy
TTITLE6=Gid Tanner And His Skillet Lickers - Soldier's Joy
TTITLE7=Gid Tanner And His Skillet Lickers - Flop Eared Mule
TTITLE8=The Carter Family - Keep On The Sunny Side
TTITLE9=The Carter Family - Wildwood Flower
TTITLE10=Jimmie Rodgers - Those Gambler's Blues
TTITLE11=Jimmie Rodgers - Jimmie's Mean Mama Blues
TTITLE12=Bob Wills - New San Antonio Rose
TTITLE13=Bob Wills - Take Me Back To Tulsa
TTITLE14=Cliff Carlisle - Pay Day Fight
TTITLE15=Cliff Carlisle - Pan American Man
TTITLE16=Bill Monroe - New Mule Skinner Blues
TTITLE17=Bill Monroe - Uncle Penn
TTITLE18=Gene Autry - That's How I Got My Start
TTITLE19=Gene Autry - Bear Cat Papa Blues
TTITLE20=Roy Acuff - Steamboat Whistle Blues
TTITLE21=Roy Acuff - Smoky Mountain Rag
TTITLE22=Hank Williams - Long Gone Lonesome Blues
TTITLE23=Hank Williams - Why Don't You Love Me?
EXTD=
EXTT0=
EXTT1=
EXTT2=
EXTT3=
EXTT4=
EXTT5=
EXTT6=
EXTT7=
EXTT8=
EXTT9=
EXTT10=
EXTT11=
EXTT12=
EXTT13=
EXTT14=
EXTT15=
EXTT16=
EXTT17=
EXTT18=
EXTT19=
EXTT20=
EXTT21=
EXTT22=
EXTT23=
PLAYORDER=
